<?xml version="1.0" encoding="UTF-8"?>
<!DOCTYPE svg PUBLIC "-//W3C//DTD SVG 1.1//EN" "http://www.w3.org/Graphics/SVG/1.1/DTD/svg11.dtd">
<!-- Creator: CorelDRAW -->
<svg xmlns="http://www.w3.org/2000/svg" xml:space="preserve" width="400px" height="400px" version="1.1" style="shape-rendering:geometricPrecision; text-rendering:geometricPrecision; image-rendering:optimizeQuality; fill-rule:evenodd; clip-rule:evenodd"
viewBox="0 0 400 400"
 xmlns:xlink="http://www.w3.org/1999/xlink"
 xmlns:xodm="http://www.corel.com/coreldraw/odm/2003">
 <defs>
  <style type="text/css">
   <![CDATA[
    .fil0 {fill:#F0F0F0}
    .fil2 {fill:url(#id0)}
    .fil1 {fill:url(#id1)}
    .fil3 {fill:url(#id2);fill-rule:nonzero}
   ]]>
  </style>
  <linearGradient id="id0" gradientUnits="userSpaceOnUse" x1="270.85" y1="217" x2="363.08" y2="217">
   <stop offset="0" style="stop-opacity:1; stop-color:#F0F0F0"/>
   <stop offset="1" style="stop-opacity:1; stop-color:white"/>
  </linearGradient>
  <linearGradient id="id1" gradientUnits="userSpaceOnUse" x1="287.24" y1="120.93" x2="323.65" y2="41.64">
   <stop offset="0" style="stop-opacity:1; stop-color:#F0F0F0"/>
   <stop offset="0.219608" style="stop-opacity:1; stop-color:#F7F7F7"/>
   <stop offset="1" style="stop-opacity:1; stop-color:white"/>
  </linearGradient>
  <radialGradient id="id2" gradientUnits="objectBoundingBox" cx="50%" cy="50%" r="50%" fx="50%" fy="50%">
   <stop offset="0" style="stop-opacity:1; stop-color:#888D91"/>
   <stop offset="1" style="stop-opacity:1; stop-color:white"/>
  </radialGradient>
 </defs>
 <g id="Слой_x0020_1">
  <metadata id="CorelCorpID_0Corel-Layer"/>
  <g>
   <path class="fil0" d="M200 221.01l-0.08 -0.15 -0.35 0.7 -0.35 -0.7 -0.35 0.7 -0.35 -0.7 -0.35 0.7 -0.35 -0.7 -0.35 0.7 -0.35 -0.7 -0.35 0.7 -0.35 -0.7 -0.35 0.7 -0.35 -0.7 -0.35 0.7 -0.35 -0.7 -0.35 0.7 -0.35 -0.7 -0.35 0.7 -0.35 -0.7 -0.35 0.7 -0.35 -0.7 -0.35 0.7 -0.35 -0.7 -0.35 0.7 -0.35 -0.7 -0.35 0.7 -0.35 -0.7 -0.35 0.7 -0.35 -0.7 -0.35 0.7 -0.35 -0.7 -0.33 -0.33 0 -2.94 0.33 -0.33c0.05,0 0.03,0 0.07,0l0.35 -0.7 0.35 0.7 0.35 -0.7 0.35 0.7 0.35 -0.7 0.35 0.7 0.35 -0.7 0.35 0.7 0.35 -0.7 0.35 0.7 0.35 -0.7 0.35 0.7 0.35 -0.7 0.35 0.7 0.35 -0.7 0.35 0.7 0.35 -0.7 0.36 0.7 0.34 -0.7 0.36 0.7 0.35 -0.7 0.35 0.7 0.35 -0.7 0.35 0.7 0.35 -0.7 0.35 0.7 0.35 -0.7 0.35 0.7 0.35 -0.7 0.35 0.7 0 -0.01 0 3.76zm0 -41.87l0 3.76 -0.08 -0.16 -0.35 0.7 -0.35 -0.7 -0.35 0.7 -0.35 -0.7 -0.35 0.7 -0.35 -0.7 -0.35 0.7 -0.35 -0.7 -0.35 0.7 -0.35 -0.7 -0.35 0.7 -0.35 -0.7 -0.35 0.7 -0.35 -0.7 -0.35 0.7 -0.35 -0.7 -0.35 0.7 -0.35 -0.7 -0.35 0.7 -0.35 -0.7 -0.35 0.7 -0.35 -0.7 -0.35 0.7 -0.35 -0.7 -0.35 0.7 -0.35 -0.7 -0.35 0.7 -0.35 -0.7 -0.35 0.7 -0.35 -0.7 -0.33 -0.33 0 -2.94 0.33 -0.33c0.05,0 0.03,0 0.07,0l0.35 -0.7 0.35 0.7 0.35 -0.7 0.35 0.7 0.35 -0.7 0.35 0.7 0.35 -0.7 0.35 0.7 0.35 -0.7 0.35 0.7 0.35 -0.7 0.35 0.7 0.35 -0.7 0.35 0.7 0.35 -0.7 0.35 0.7 0.35 -0.7 0.36 0.7 0.34 -0.7 0.36 0.7 0.35 -0.7 0.35 0.7 0.35 -0.7 0.35 0.7 0.35 -0.7 0.35 0.7 0.35 -0.7 0.35 0.7 0.35 -0.7 0.35 0.7 0 0zm27.56 40.83c0.02,-0.01 0.05,-0.02 0.07,-0.02 2.58,-0.55 5.15,-1.09 7.73,-1.64 0.01,0.04 0.02,0.08 0.02,0.12 0.25,1.14 0.49,2.29 0.73,3.44 1.88,-0.4 3.75,-0.8 5.63,-1.19 0.24,1.14 0.48,2.28 0.72,3.43 -1.87,0.39 -3.75,0.79 -5.62,1.19 0.13,0.62 0.26,1.24 0.39,1.86 1.88,-0.4 3.75,-0.8 5.63,-1.19 -1.02,3.45 -2.04,6.91 -3.06,10.37 -0.93,0.2 -1.85,0.39 -2.77,0.59 0.1,0.46 0.2,0.93 0.3,1.39 0.92,-0.19 1.84,-0.39 2.76,-0.58 0.26,1.24 0.53,2.48 0.79,3.72 -0.92,0.2 -1.84,0.39 -2.77,0.59 0.4,1.86 0.79,3.72 1.19,5.58 -1.16,0.25 -2.31,0.49 -3.46,0.74 -0.39,-1.87 -0.79,-3.73 -1.18,-5.59 -0.92,0.2 -1.85,0.39 -2.77,0.59 -0.26,-1.25 -0.52,-2.49 -0.79,-3.73 0.93,-0.19 1.85,-0.39 2.77,-0.58 -0.1,-0.47 -0.2,-0.94 -0.29,-1.4 -0.93,0.19 -1.85,0.39 -2.77,0.58 -2.34,-2.74 -4.67,-5.49 -7,-8.24 1.87,-0.4 3.75,-0.79 5.62,-1.19 -0.13,-0.62 -0.26,-1.24 -0.39,-1.86 -1.88,0.39 -3.75,0.79 -5.63,1.19 -0.24,-1.15 -0.48,-2.29 -0.72,-3.43 1.87,-0.4 3.75,-0.8 5.62,-1.19 -0.25,-1.19 -0.5,-2.37 -0.75,-3.55zm12.24 16.37c0.49,0.11 29.95,2.29 30.43,2.33 3.69,0.28 7.37,-1.7 9.36,-4.93 14.66,1.92 29.33,3.84 43.99,5.76 19.03,-0.7 20.47,-0.75 39.5,-1.45 0,-2.13 0,-4.11 0,-6.36 -19.03,0.7 -19.06,0.7 -38.09,1.4 -9.81,-1.29 -19.61,-2.57 -29.41,-3.86 11.91,-1.18 23.83,-2.36 35.75,-3.54 0.08,-1.39 0.16,-2.79 0.25,-4.19 -16.9,1.69 -33.8,3.38 -50.69,5.07 0,0 -1.63,-8.22 -9.81,-8.07 -10.29,0.18 -15,2 -16,12 -4.44,-0.3 -8.87,-0.59 -13.3,-0.89l-1.98 6.73zm-4.44 -18.03c0.18,-1.1 0.36,-2.21 0.54,-3.31 1.39,0 2.78,0 4.18,0 2.16,0.83 4.33,1.67 6.5,2.5 0.99,0 2,0 3,0 0.08,-0.83 0.16,-1.67 0.25,-2.5 1.81,0 3.62,0 5.44,0 0.06,-0.5 0.12,-1 0.19,-1.5 1.54,0 3.08,0 4.62,0 0.08,-0.84 0.16,-1.67 0.25,-2.5 1.08,0 2.16,0 3.25,0 1.5,0 3.5,-3 3.5,-5.5 1.07,0 2.07,0 3.15,0 2.54,0 5.2,-0.5 8.24,-0.5 28.2,0 56.4,0 84.61,0 0,-3.33 0,-6.67 0,-10 -28.24,0 -56.48,0 -84.71,0 -4.8,0 -5.14,-0.5 -8.14,-0.5 -1.05,0 -2.1,0 -3.15,0 0,-2.5 -2,-5.5 -3.5,-5.5 -1.09,0 -2.17,0 -3.25,0 -0.09,-0.83 -0.17,-1.67 -0.25,-2.5 -1.54,0 -3.08,0 -4.62,0 -0.07,-0.5 -0.13,-1 -0.19,-1.5 -1.82,0 -3.63,0 -5.44,0 -0.09,-0.84 -0.17,-1.67 -0.25,-2.5 -1,0 -2.01,0 -3,0 -2.17,0.83 -4.34,1.66 -6.5,2.5 -1.88,0 -3.75,0 -5.63,0 4.21,-2.5 8.42,-5 12.63,-7.5 16.9,3.48 -5.31,-1.09 36.6,7.54 3.93,0.8 3.97,0.35 5.13,-3.2 3.42,-10.58 7.87,-24.33 11.37,-35.15 1.11,-3.43 0.98,-3.49 -3.4,-4.8 1.08,-3.32 2.25,-6.95 3.27,-10.1 5.59,-5.71 0,0 5.59,-5.71 -11.73,-3.8 -18.18,-5.89 -27.35,-8.85 1.18,7.89 0,0 1.18,7.89 -1.41,4.38 -2.19,6.77 -3.27,10.11 -14.88,-3.07 -25.39,-1.27 -28.15,7.28 -1.76,5.42 -4.66,14.38 -6.47,19.99 -2.5,1.83 -5,3.66 -7.5,5.5 -0.17,0.67 -0.34,1.33 -0.5,2 -1.17,0.83 -2.34,1.67 -3.5,2.5 0,0.83 0,1.67 0,2.5 -0.84,0.33 -1.67,0.67 -2.5,1 -1.84,-2.01 -3.67,-4.01 -5.5,-6.02 0,-4.91 0,-9.82 0,-14.73 -1.67,0 -3.34,0 -5,0 0,6.41 0,12.83 0,19.25 -5.7,0 -11.39,0 -17.08,0 0,5.8 0,11.6 0,17.4l-5.76 0 -1.24 1.24 0 13.72 1.24 1.24c1.77,0 3.99,0 5.76,0 0,5.8 0,11.6 0,17.4 5.69,0 11.38,0 17.08,0 0,6.42 0,12.83 0,19.25 1.66,0 3.33,0 5,0 0,-8.81 0,-17.62 0,-26.44 1.64,0 3.28,0 4.93,0 0.21,0.55 0.42,1.09 0.62,1.64l7.73 -1.64z"/>
  </g>
  <path class="fil1" d="M299.13 100.59l13.6 1.1c0.11,0.01 0.2,0 0.3,-0.02 0.21,-0.03 0.48,-0.21 0.66,-0.4 0.81,-0.85 0.67,-2.35 -0.19,-2.6l-12.39 -4.01 13.6 1.11c0.09,0 0.18,0 0.28,-0.02 1.39,-0.36 1.65,-2.67 0.49,-3l-12.38 -4.01 13.59 1.1c0.11,0.01 0.2,-0.02 0.28,-0.02 1.35,-0.31 1.68,-2.67 0.5,-3l-12.39 -4.01 13.6 1.1c0.04,0.01 0.21,0.01 0.27,-0.02 0.54,-0.12 1.02,-0.64 1.18,-1.33 0.18,-0.78 -0.12,-1.51 -0.68,-1.67l-12.38 -4.01 13.59 1.1c0.3,0.03 0.65,-0.11 0.92,-0.38 0.85,-0.84 0.75,-2.38 -0.15,-2.64l-12.38 -4.01 13.59 1.1c0.3,0.03 0.63,-0.09 0.9,-0.35 0.87,-0.83 0.78,-2.4 -0.12,-2.67l-12.39 -4.01 13.6 1.11c0.28,0.02 0.54,-0.08 0.81,-0.29 0.31,-0.24 0.54,-0.64 0.64,-1.06 0.18,-0.79 -0.11,-1.51 -0.68,-1.67l-12.38 -4.01 13.59 1.1c0.08,0.01 0.15,-0.01 0.22,-0.01 0.56,-0.1 1.06,-0.62 1.23,-1.34 0.19,-0.78 -0.12,-1.51 -0.68,-1.67l-12.38 -4.01 13.6 1.1c0.09,0.01 0.18,0 0.27,-0.01 1.39,-0.37 1.66,-2.67 0.5,-3.01l-12.39 -4.01 13.6 1.1c0.3,0.03 0.62,-0.09 0.89,-0.35 0.88,-0.83 0.79,-2.4 -0.12,-2.67l-25.07 -8.11c-0.6,-0.2 -1.32,0.3 -1.59,1.12 -0.27,0.82 0,1.65 0.6,1.85l12.41 4.02c-1.2,-0.1 -13.75,-1.15 -13.81,-1.1 -0.17,0.03 -0.61,0.22 -0.73,0.4 -0.32,0.33 -0.53,0.81 -0.55,1.29 -0.04,0.66 0.25,1.19 0.73,1.33l12.38 4.01 -13.6 -1.11c-0.32,-0.03 -0.66,0.12 -0.94,0.4 -0.83,0.85 -0.71,2.37 0.17,2.63l12.39 4 -13.6 -1.1c-1.02,-0.1 -1.87,1.48 -1.34,2.53 0.13,0.25 0.33,0.42 0.57,0.49l12.38 4.01 -13.59 -1.1c-0.09,-0.01 -0.18,0.01 -0.25,0.01 -0.56,0.11 -1.03,0.63 -1.2,1.34 -0.18,0.79 0.11,1.5 0.67,1.67l12.39 4.01 -13.6 -1.1c-0.39,-0.04 -0.79,0.18 -1.1,0.58 -0.16,0.21 -0.28,0.51 -0.35,0.77 -0.17,0.78 0.11,1.5 0.68,1.67l12.38 4.01 -13.59 -1.11c-0.12,-0.01 -0.25,0.01 -0.37,0.04 -1.3,0.44 -1.54,2.64 -0.4,2.99l12.38 4 -13.59 -1.1c-0.05,0 -0.26,0 -0.34,0.03 -1.29,0.37 -1.61,2.64 -0.44,2.99l12.39 4.01 -13.6 -1.1c-0.07,-0.01 -0.17,-0.01 -0.25,0.01 -0.71,0.15 -1.27,0.97 -1.25,1.87 0.02,0.58 0.31,1.02 0.73,1.14l12.38 4.01 -13.59 -1.1c-0.12,-0.01 -0.25,0 -0.37,0.04 -1.3,0.44 -1.54,2.64 -0.4,2.98l12.38 4.01 -13.6 -1.1c-0.01,-0.01 -0.23,-0.01 -0.27,0.01 -1.31,0.27 -1.71,2.65 -0.5,3.01l12.39 4 -13.6 -1.1c-0.09,-0.01 -0.18,0 -0.27,0.02 -1.39,0.36 -1.67,2.66 -0.5,3l12.38 4.01c-4.53,-0.37 -9.06,-0.73 -13.59,-1.1 -0.45,-0.04 -0.94,0.27 -1.23,0.78 -0.51,0.91 -0.28,2.03 0.46,2.24 4.12,1.34 8.25,2.67 12.38,4.01 -4.53,-0.37 -9.06,-0.73 -13.6,-1.1 -0.09,-0.01 -0.18,0 -0.27,0.01 -1.39,0.37 -1.66,2.66 -0.5,3.01 8.36,2.7 16.71,5.41 25.07,8.11 0.61,0.2 1.32,-0.3 1.59,-1.12 0.27,-0.82 0,-1.65 -0.6,-1.85 -4.14,-1.34 -8.28,-2.68 -12.41,-4.01 4.53,0.36 9.06,0.73 13.59,1.1 0.12,0.01 0.25,-0.01 0.37,-0.04 1.31,-0.44 1.54,-2.65 0.41,-2.99 -4.13,-1.33 -8.26,-2.67 -12.39,-4 4.54,0.36 9.07,0.73 13.6,1.1 0.05,0 0.19,0.01 0.25,-0.01 1.33,-0.24 1.74,-2.65 0.52,-3.01 -4.13,-1.34 -8.25,-2.68 -12.38,-4.01l13.59 1.1c0.13,0.01 0.22,-0.03 0.31,-0.02 1.31,-0.33 1.65,-2.65 0.46,-3l-12.38 -4.01z"/>
  <path class="fil2" d="M363.08 195c-28.24,0 -56.48,0 -84.71,0 -4.46,0 -5.06,-0.43 -7.52,-0.49l0 10.98c2.35,-0.07 4.83,-0.49 7.62,-0.49 28.2,0 56.4,0 84.61,0 0,-3.33 0,-6.67 0,-10zm-38.09 38.09c-9.81,-1.29 -19.61,-2.57 -29.41,-3.86 11.91,-1.18 23.83,-2.36 35.75,-3.54 0.08,-1.39 0.16,-2.79 0.25,-4.19 -16.9,1.69 -33.8,3.38 -50.69,5.07 0,0 -1.63,-8.22 -9.81,-8.07 -0.08,0 -0.16,0 -0.23,0l0 20.19c3.47,0.03 6.86,-1.9 8.74,-4.95 14.66,1.92 29.33,3.84 43.99,5.76 19.03,-0.7 20.47,-0.75 39.5,-1.45 0,-2.13 0,-4.11 0,-6.36 -19.03,0.7 -19.06,0.7 -38.09,1.4z"/>
  <path class="fil3" d="M400 199.55l-4 0 0 0.9 4 0 0 -0.9zm-4.9 0l0 0.9 -0.9 0 0 -0.9 0.9 0zm-1.8 0l0 0.9 -4.5 0 0 -0.9 4.5 0zm-5.4 0l0 0.9 -0.9 0 0 -0.9 0.9 0zm-1.8 0l0 0.9 -4.5 0 0 -0.9 4.5 0zm-5.4 0l0 0.9 -0.9 0 0 -0.9 0.9 0zm-1.8 0l0 0.9 -4.5 0 0 -0.9 4.5 0zm-5.4 0l0 0.9 -0.9 0 0 -0.9 0.9 0zm-1.8 0l0 0.9 -4.5 0 0 -0.9 4.5 0zm-5.4 0l0 0.9 -0.9 0 0 -0.9 0.9 0zm-1.8 0l0 0.9 -4.5 0 0 -0.9 4.5 0zm-5.4 0l0 0.9 -0.9 0 0 -0.9 0.9 0zm-1.8 0l0 0.9 -4.5 0 0 -0.9 4.5 0zm-5.4 0l0 0.9 -0.9 0 0 -0.9 0.9 0zm-1.8 0l0 0.9 -4.5 0 0 -0.9 4.5 0zm-5.4 0l0 0.9 -0.9 0 0 -0.9 0.9 0zm-1.8 0l0 0.9 -4.5 0 0 -0.9 4.5 0zm-5.4 0l0 0.9 -0.9 0 0 -0.9 0.9 0zm-1.8 0l0 0.9 -4.5 0 0 -0.9 4.5 0zm-5.4 0l0 0.9 -0.9 0 0 -0.9 0.9 0zm-1.8 0l0 0.9 -4.5 0 0 -0.9 4.5 0zm-5.4 0l0 0.9 -0.9 0 0 -0.9 0.9 0zm-1.8 0l0 0.9 -4.5 0 0 -0.9 4.5 0zm-5.4 0l0 0.9 -0.9 0 0 -0.9 0.9 0zm-1.8 0l0 0.9 -4.5 0 0 -0.9 4.5 0zm-5.4 0l0 0.9 -0.9 0 0 -0.9 0.9 0zm-1.8 0l0 0.9 -4.5 0 0 -0.9 4.5 0zm-5.4 0l0 0.9 -0.9 0 0 -0.9 0.9 0zm-1.8 0l0 0.9 -4.5 0 0 -0.9 4.5 0zm-5.4 0l0 0.9 -0.9 0 0 -0.9 0.9 0zm-1.8 0l0 0.9 -4.5 0 0 -0.9 4.5 0zm-5.4 0l0 0.9 -0.9 0 0 -0.9 0.9 0zm-1.8 0l0 0.9 -4.5 0 0 -0.9 4.5 0zm-5.4 0l0 0.9 -0.9 0 0 -0.9 0.9 0zm-1.8 0l0 0.9 -4.5 0 0 -0.9 4.5 0zm-5.4 0l0 0.9 -0.9 0 0 -0.9 0.9 0zm-1.8 0l0 0.9 -4.5 0 0 -0.9 4.5 0zm-5.4 0l0 0.9 -0.9 0 0 -0.9 0.9 0zm-1.8 0l0 0.9 -4.5 0 0 -0.9 4.5 0zm-5.4 0l0 0.9 -0.9 0 0 -0.9 0.9 0zm-1.8 0l0 0.9 -4.5 0 0 -0.9 4.5 0zm-5.4 0l0 0.9 -0.9 0 0 -0.9 0.9 0zm-1.8 0l0 0.9 -4.5 0 0 -0.9 4.5 0zm-5.4 0l0 0.9 -0.9 0 0 -0.9 0.9 0zm-1.8 0l0 0.9 -4.5 0 0 -0.9 4.5 0zm-5.4 0l0 0.9 -0.9 0 0 -0.9 0.9 0zm-1.8 0l0 0.9 -4.5 0 0 -0.9 4.5 0zm-5.4 0l0 0.9 -0.9 0 0 -0.9 0.9 0zm-1.8 0l0 0.9 -4.5 0 0 -0.9 4.5 0zm-5.4 0l0 0.9 -0.9 0 0 -0.9 0.9 0zm-1.8 0l0 0.9 -4.5 0 0 -0.9 4.5 0zm-5.4 0l0 0.9 -0.9 0 0 -0.9 0.9 0zm-1.8 0l0 0.9 -4.5 0 0 -0.9 4.5 0zm-5.4 0l0 0.9 -0.9 0 0 -0.9 0.9 0zm-1.8 0l0 0.9 -4.5 0 0 -0.9 4.5 0zm-7.2 0l0 0.9 -4.5 0 0 -0.9 4.5 0zm1.8 0l0 0.9 -0.25 0 0 0.25 -0.9 0 0 -0.9 0.25 0 0 -0.25 0.9 0zm-7.2 0l0 0.9 -0.9 0 0 -0.9 0.9 0zm-1.8 0l0 0.9 -4.5 0 0 -0.9 4.5 0zm-5.4 0l0 0.9 -0.9 0 0 -0.9 0.9 0zm-1.8 0l0 0.9 -4.5 0 0 -0.9 4.5 0zm-5.4 0l0 0.9 -0.9 0 0 -0.9 0.9 0zm-1.8 0l0 0.9 -4.5 0 0 -0.9 4.5 0zm-5.4 0l0 0.9 -0.9 0 0 -0.9 0.9 0zm-1.8 0l0 0.9 -4.5 0 0 -0.9 4.5 0zm-5.4 0l0 0.9 -0.9 0 0 -0.9 0.9 0zm-1.8 0l0 0.9 -4.5 0 0 -0.9 4.5 0zm-5.4 0l0 0.9 -0.9 0 0 -0.9 0.9 0zm-1.8 0l0 0.9 -4.5 0 0 -0.9 4.5 0zm-5.4 0l0 0.9 -0.9 0 0 -0.9 0.9 0zm-1.8 0l0 0.9 -4.5 0 0 -0.9 4.5 0zm-5.4 0l0 0.9 -0.9 0 0 -0.9 0.9 0zm-1.8 0l0 0.9 -4.5 0 0 -0.9 4.5 0zm-5.4 0l0 0.9 -0.9 0 0 -0.9 0.9 0zm-1.8 0l0 0.9 -4.5 0 0 -0.9 4.5 0zm-5.4 0l0 0.9 -0.9 0 0 -0.9 0.9 0zm-1.8 0l0 0.9 -4.5 0 0 -0.9 4.5 0zm-5.4 0l0 0.9 -0.9 0 0 -0.9 0.9 0zm-1.8 0l0 0.9 -4.5 0 0 -0.9 4.5 0zm-5.4 0l0 0.9 -0.9 0 0 -0.9 0.9 0zm-1.8 0l0 0.9 -4.5 0 0 -0.9 4.5 0zm-5.4 0l0 0.9 -0.9 0 0 -0.9 0.9 0zm-1.8 0l0 0.9 -4.5 0 0 -0.9 4.5 0zm-5.4 0l0 0.9 -0.9 0 0 -0.9 0.9 0zm-1.8 0l0 0.9 -4.5 0 0 -0.9 4.5 0zm-5.4 0l0 0.9 -0.9 0 0 -0.9 0.9 0zm-1.8 0l0 0.9 -4.5 0 0 -0.9 4.5 0zm-5.4 0l0 0.9 -0.9 0 0 -0.9 0.9 0zm-1.8 0l0 0.9 -4.5 0 0 -0.9 4.5 0zm-5.4 0l0 0.9 -0.9 0 0 -0.9 0.9 0zm-1.8 0l0 0.9 -4.5 0 0 -0.9 4.5 0zm-5.4 0l0 0.9 -0.9 0 0 -0.9 0.9 0zm-1.8 0l0 0.9 -4.5 0 0 -0.9 4.5 0zm-5.4 0l0 0.9 -0.9 0 0 -0.9 0.9 0zm-1.8 0l0 0.9 -4.5 0 0 -0.9 4.5 0zm-5.4 0l0 0.9 -0.9 0 0 -0.9 0.9 0zm-1.8 0l0 0.9 -4.5 0 0 -0.9 4.5 0zm-5.4 0l0 0.9 -0.9 0 0 -0.9 0.9 0zm-1.8 0l0 0.9 -4.5 0 0 -0.9 4.5 0zm-5.4 0l0 0.9 -0.9 0 0 -0.9 0.9 0zm-1.8 0l0 0.9 -4.5 0 0 -0.9 4.5 0zm-5.4 0l0 0.9 -0.9 0 0 -0.9 0.9 0zm-1.8 0l0 0.9 -4.5 0 0 -0.9 4.5 0zm-5.4 0l0 0.9 -0.9 0 0 -0.9 0.9 0zm-1.8 0l0 0.9 -4.5 0 0 -0.9 4.5 0zm-5.4 0l0 0.9 -0.9 0 0 -0.9 0.9 0zm-1.8 0l0 0.9 -4.5 0 0 -0.9 4.5 0zm-5.4 0l0 0.9 -0.9 0 0 -0.9 0.9 0zm-1.8 0l0 0.9 -4.5 0 0 -0.9 4.5 0zm-5.4 0l0 0.9 -0.9 0 0 -0.9 0.9 0zm-1.8 0l0 0.9 -4.5 0 0 -0.9 4.5 0zm195.95 200.45l0 -4 -0.9 0 0 4 0.9 0zm0 -4.9l-0.9 0 0 -0.9 0.9 0 0 0.9zm0 -1.8l-0.9 0 0 -4.5 0.9 0 0 4.5zm0 -5.4l-0.9 0 0 -0.9 0.9 0 0 0.9zm0 -1.8l-0.9 0 0 -4.5 0.9 0 0 4.5zm0 -5.4l-0.9 0 0 -0.9 0.9 0 0 0.9zm0 -1.8l-0.9 0 0 -4.5 0.9 0 0 4.5zm0 -5.4l-0.9 0 0 -0.9 0.9 0 0 0.9zm0 -1.8l-0.9 0 0 -4.5 0.9 0 0 4.5zm0 -5.4l-0.9 0 0 -0.9 0.9 0 0 0.9zm0 -1.8l-0.9 0 0 -4.5 0.9 0 0 4.5zm0 -5.4l-0.9 0 0 -0.9 0.9 0 0 0.9zm0 -1.8l-0.9 0 0 -4.5 0.9 0 0 4.5zm0 -5.4l-0.9 0 0 -0.9 0.9 0 0 0.9zm0 -1.8l-0.9 0 0 -4.5 0.9 0 0 4.5zm0 -5.4l-0.9 0 0 -0.9 0.9 0 0 0.9zm0 -1.8l-0.9 0 0 -4.5 0.9 0 0 4.5zm0 -5.4l-0.9 0 0 -0.9 0.9 0 0 0.9zm0 -1.8l-0.9 0 0 -4.5 0.9 0 0 4.5zm0 -5.4l-0.9 0 0 -0.9 0.9 0 0 0.9zm0 -1.8l-0.9 0 0 -4.5 0.9 0 0 4.5zm0 -5.4l-0.9 0 0 -0.9 0.9 0 0 0.9zm0 -1.8l-0.9 0 0 -4.5 0.9 0 0 4.5zm0 -5.4l-0.9 0 0 -0.9 0.9 0 0 0.9zm0 -1.8l-0.9 0 0 -4.5 0.9 0 0 4.5zm0 -5.4l-0.9 0 0 -0.9 0.9 0 0 0.9zm0 -1.8l-0.9 0 0 -4.5 0.9 0 0 4.5zm0 -5.4l-0.9 0 0 -0.9 0.9 0 0 0.9zm0 -1.8l-0.9 0 0 -4.5 0.9 0 0 4.5zm0 -5.4l-0.9 0 0 -0.9 0.9 0 0 0.9zm0 -1.8l-0.9 0 0 -4.5 0.9 0 0 4.5zm0 -5.4l-0.9 0 0 -0.9 0.9 0 0 0.9zm0 -1.8l-0.9 0 0 -4.5 0.9 0 0 4.5zm0 -5.4l-0.9 0 0 -0.9 0.9 0 0 0.9zm0 -1.8l-0.9 0 0 -4.5 0.9 0 0 4.5zm0 -5.4l-0.9 0 0 -0.9 0.9 0 0 0.9zm0 -1.8l-0.9 0 0 -4.5 0.9 0 0 4.5zm0 -5.4l-0.9 0 0 -0.9 0.9 0 0 0.9zm0 -1.8l-0.9 0 0 -4.5 0.9 0 0 4.5zm0 -5.4l-0.9 0 0 -0.9 0.9 0 0 0.9zm0 -1.8l-0.9 0 0 -4.5 0.9 0 0 4.5zm0 -5.4l-0.9 0 0 -0.9 0.9 0 0 0.9zm0 -1.8l-0.9 0 0 -4.5 0.9 0 0 4.5zm0 -5.4l-0.9 0 0 -0.9 0.9 0 0 0.9zm0 -1.8l-0.9 0 0 -4.5 0.9 0 0 4.5zm0 -5.4l-0.9 0 0 -0.9 0.9 0 0 0.9zm0 -1.8l-0.9 0 0 -4.5 0.9 0 0 4.5zm0 -5.4l-0.9 0 0 -0.9 0.9 0 0 0.9zm0 -1.8l-0.9 0 0 -4.5 0.9 0 0 4.5zm0 -5.4l-0.9 0 0 -0.9 0.9 0 0 0.9zm0 -1.8l-0.9 0 0 -4.5 0.9 0 0 4.5zm0 -5.4l-0.9 0 0 -0.9 0.9 0 0 0.9zm0 -1.8l-0.9 0 0 -4.5 0.9 0 0 4.5zm0 -5.4l-0.9 0 0 -0.9 0.9 0 0 0.9zm0 -1.8l-0.9 0 0 -4.5 0.9 0 0 4.5zm0 -7.2l-0.9 0 0 -4.5 0.9 0 0 4.5zm0 -5.4l-0.9 0 0 -0.9 0.9 0 0 0.9zm0 -1.8l-0.9 0 0 -4.5 0.9 0 0 4.5zm0 -5.4l-0.9 0 0 -0.9 0.9 0 0 0.9zm0 -1.8l-0.9 0 0 -4.5 0.9 0 0 4.5zm0 -5.4l-0.9 0 0 -0.9 0.9 0 0 0.9zm0 -1.8l-0.9 0 0 -4.5 0.9 0 0 4.5zm0 -5.4l-0.9 0 0 -0.9 0.9 0 0 0.9zm0 -1.8l-0.9 0 0 -4.5 0.9 0 0 4.5zm0 -5.4l-0.9 0 0 -0.9 0.9 0 0 0.9zm0 -1.8l-0.9 0 0 -4.5 0.9 0 0 4.5zm0 -5.4l-0.9 0 0 -0.9 0.9 0 0 0.9zm0 -1.8l-0.9 0 0 -4.5 0.9 0 0 4.5zm0 -5.4l-0.9 0 0 -0.9 0.9 0 0 0.9zm0 -1.8l-0.9 0 0 -4.5 0.9 0 0 4.5zm0 -5.4l-0.9 0 0 -0.9 0.9 0 0 0.9zm0 -1.8l-0.9 0 0 -4.5 0.9 0 0 4.5zm0 -5.4l-0.9 0 0 -0.9 0.9 0 0 0.9zm0 -1.8l-0.9 0 0 -4.5 0.9 0 0 4.5zm0 -5.4l-0.9 0 0 -0.9 0.9 0 0 0.9zm0 -1.8l-0.9 0 0 -4.5 0.9 0 0 4.5zm0 -5.4l-0.9 0 0 -0.9 0.9 0 0 0.9zm0 -1.8l-0.9 0 0 -4.5 0.9 0 0 4.5zm0 -5.4l-0.9 0 0 -0.9 0.9 0 0 0.9zm0 -1.8l-0.9 0 0 -4.5 0.9 0 0 4.5zm0 -5.4l-0.9 0 0 -0.9 0.9 0 0 0.9zm0 -1.8l-0.9 0 0 -4.5 0.9 0 0 4.5zm0 -5.4l-0.9 0 0 -0.9 0.9 0 0 0.9zm0 -1.8l-0.9 0 0 -4.5 0.9 0 0 4.5zm0 -5.4l-0.9 0 0 -0.9 0.9 0 0 0.9zm0 -1.8l-0.9 0 0 -4.5 0.9 0 0 4.5zm0 -5.4l-0.9 0 0 -0.9 0.9 0 0 0.9zm0 -1.8l-0.9 0 0 -4.5 0.9 0 0 4.5zm0 -5.4l-0.9 0 0 -0.9 0.9 0 0 0.9zm0 -1.8l-0.9 0 0 -4.5 0.9 0 0 4.5zm0 -5.4l-0.9 0 0 -0.9 0.9 0 0 0.9zm0 -1.8l-0.9 0 0 -4.5 0.9 0 0 4.5zm0 -5.4l-0.9 0 0 -0.9 0.9 0 0 0.9zm0 -1.8l-0.9 0 0 -4.5 0.9 0 0 4.5zm0 -5.4l-0.9 0 0 -0.9 0.9 0 0 0.9zm0 -1.8l-0.9 0 0 -4.5 0.9 0 0 4.5zm0 -5.4l-0.9 0 0 -0.9 0.9 0 0 0.9zm0 -1.8l-0.9 0 0 -4.5 0.9 0 0 4.5zm0 -5.4l-0.9 0 0 -0.9 0.9 0 0 0.9zm0 -1.8l-0.9 0 0 -4.5 0.9 0 0 4.5zm0 -5.4l-0.9 0 0 -0.9 0.9 0 0 0.9zm0 -1.8l-0.9 0 0 -4.5 0.9 0 0 4.5zm0 -5.4l-0.9 0 0 -0.9 0.9 0 0 0.9zm0 -1.8l-0.9 0 0 -4.5 0.9 0 0 4.5zm0 -5.4l-0.9 0 0 -0.9 0.9 0 0 0.9zm0 -1.8l-0.9 0 0 -4.5 0.9 0 0 4.5zm0 -5.4l-0.9 0 0 -0.9 0.9 0 0 0.9zm0 -1.8l-0.9 0 0 -4.5 0.9 0 0 4.5zm0 -5.4l-0.9 0 0 -0.9 0.9 0 0 0.9zm0 -1.8l-0.9 0 0 -4.5 0.9 0 0 4.5z"/>
 </g>
</svg>
